<?xml version="1.0" encoding="UTF-8" standalone="no"?>
<!DOCTYPE svg PUBLIC "-//W3C//DTD SVG 1.1//EN" "http://www.w3.org/Graphics/SVG/1.1/DTD/svg11.dtd">
<svg xmlns="http://www.w3.org/2000/svg" version="1.1" viewBox="0.00 0.00 1404.00 1492.00">
<path fill="#000000" fill-opacity="0.004" d="
  M 0.00 0.00
  L 1404.00 0.00
  L 1404.00 1492.00
  L 0.00 1492.00
  L 0.00 0.00
  Z
  M 638.98 263.68
  C 643.18 270.35 650.87 271.70 658.02 268.88
  C 666.36 265.60 661.63 254.68 670.22 249.69
  Q 702.21 231.13 735.08 247.03
  C 738.30 248.59 741.27 251.32 742.72 254.30
  C 744.34 257.63 744.90 263.02 747.94 266.18
  C 755.29 273.82 770.37 269.87 771.71 259.00
  C 774.94 232.89 742.87 215.29 721.20 212.59
  C 719.12 212.33 718.24 211.62 718.24 209.50
  Q 718.21 149.81 718.53 90.12
  C 718.57 82.62 716.51 77.54 709.20 74.96
  C 693.71 69.48 690.27 83.14 690.26 94.50
  Q 690.26 151.59 690.24 208.69
  C 690.24 210.89 688.52 212.56 686.26 212.92
  Q 664.12 216.47 647.64 231.61
  C 640.06 238.58 632.67 253.68 638.98 263.68
  Z
  M 634.29 312.15
  C 636.94 323.93 654.17 326.70 659.60 315.00
  C 662.29 309.20 665.89 305.46 672.04 302.83
  C 695.27 292.88 719.92 294.40 742.61 305.78
  C 747.23 308.10 746.28 314.93 750.00 318.55
  Q 756.90 325.27 766.58 321.05
  C 773.63 317.99 775.33 311.52 773.71 304.25
  C 770.29 288.89 758.64 280.94 744.70 275.49
  Q 700.91 258.36 657.94 277.18
  Q 639.37 285.32 634.76 304.39
  Q 633.61 309.14 634.29 312.15
  Z
  M 642.10 372.52
  C 654.18 376.33 656.53 364.28 664.81 360.22
  Q 667.20 359.04 669.07 358.53
  Q 708.52 347.66 747.00 361.24
  C 747.72 361.49 748.47 362.28 748.78 363.08
  C 756.64 383.24 783.77 371.89 774.75 351.94
  C 768.47 338.04 757.47 334.22 742.18 330.38
  Q 698.10 319.30 654.33 333.91
  Q 640.26 338.60 633.75 351.69
  C 629.21 360.80 632.69 369.56 642.10 372.52
  Z
  M 598.44 439.81
  Q 607.81 446.06 615.84 439.75
  C 619.52 436.86 619.61 432.35 622.03 428.71
  C 624.56 424.90 631.43 421.64 636.16 420.13
  C 670.91 409.02 706.92 407.17 743.00 412.25
  Q 763.15 415.09 782.25 424.50
  C 787.11 426.90 787.35 430.30 789.19 434.79
  C 796.12 451.59 819.59 439.18 815.29 423.46
  C 808.96 400.26 777.13 389.75 756.73 385.93
  Q 700.61 375.40 644.93 387.94
  C 624.92 392.45 601.45 401.21 594.37 421.91
  C 592.28 428.02 592.57 435.90 598.44 439.81
  Z
  M 593.93 476.43
  C 590.72 488.98 601.08 498.92 613.38 493.56
  C 618.70 491.25 620.91 485.48 623.65 480.91
  Q 623.91 480.47 624.38 480.25
  Q 643.83 471.48 664.99 468.75
  Q 713.66 462.46 761.75 472.04
  Q 773.62 474.40 786.79 482.18
  A 1.33 1.33 0.0 0 1 787.37 482.92
  C 789.09 488.52 790.75 492.40 796.66 494.09
  C 809.93 497.89 817.36 487.10 814.90 475.24
  C 812.09 461.72 792.35 451.36 780.31 448.05
  Q 710.82 428.93 640.29 444.24
  Q 624.87 447.58 608.46 457.69
  Q 596.91 464.80 593.93 476.43
  Z
  M 598.44 542.06
  Q 606.65 548.62 614.91 543.15
  C 620.34 539.56 619.28 534.40 626.77 532.31
  C 674.06 519.08 726.18 520.27 773.92 530.14
  Q 777.87 530.95 781.49 532.64
  C 786.53 535.00 790.89 540.32 794.71 543.00
  C 807.23 551.78 817.07 537.71 814.47 526.02
  C 812.32 516.30 805.60 512.19 797.47 508.55
  C 774.30 498.16 748.86 496.02 723.81 494.67
  Q 678.89 492.26 634.96 501.28
  C 620.80 504.19 607.02 506.82 597.66 518.89
  C 591.70 526.58 590.16 535.45 598.44 542.06
  Z
  M 506.67 633.40
  C 522.54 637.39 521.45 618.77 531.53 612.62
  Q 551.30 600.55 576.74 595.22
  Q 679.11 573.78 780.07 585.96
  C 806.13 589.11 830.90 593.59 855.81 602.07
  C 865.06 605.23 881.97 612.34 885.30 622.28
  C 887.41 628.59 890.38 633.59 897.74 634.06
  C 904.12 634.47 913.74 630.19 913.25 622.25
  C 912.14 604.17 902.39 594.43 887.00 585.49
  Q 867.56 574.20 846.99 569.01
  C 762.91 547.78 670.82 548.00 585.80 563.78
  C 569.13 566.88 553.09 571.82 537.25 577.47
  C 523.48 582.39 503.13 595.00 497.67 609.24
  C 494.09 618.58 495.02 630.47 506.67 633.40
  Z
  M 495.69 681.37
  C 498.21 694.16 514.88 695.88 521.42 685.41
  C 523.84 681.53 524.95 675.52 529.29 673.01
  Q 553.38 659.11 582.69 654.44
  Q 623.14 648.01 657.26 646.12
  C 721.24 642.58 787.71 644.81 849.19 660.56
  Q 865.98 664.86 882.75 675.50
  C 885.26 677.09 885.43 680.76 886.27 682.75
  C 890.99 693.95 906.85 692.64 911.60 682.86
  C 920.55 664.46 890.44 644.89 877.25 639.98
  C 846.02 628.36 810.87 622.72 777.82 619.43
  Q 674.08 609.10 570.93 628.18
  Q 544.97 632.99 521.78 644.35
  Q 511.83 649.22 506.88 654.26
  C 500.96 660.28 493.94 672.50 495.69 681.37
  Z
  M 904.38 713.12
  C 895.17 703.54 878.69 696.38 866.23 692.81
  Q 861.56 691.48 846.74 688.30
  Q 811.05 680.65 772.56 677.95
  Q 688.01 672.01 605.85 682.62
  C 582.39 685.65 560.06 689.77 537.57 697.34
  C 520.02 703.24 501.79 708.99 496.73 727.52
  C 492.49 743.09 514.01 751.81 522.23 738.94
  C 528.11 729.74 533.16 728.62 544.64 724.60
  Q 563.00 718.18 582.24 714.92
  Q 701.39 694.68 820.67 712.39
  C 840.48 715.34 856.30 718.68 874.75 726.48
  C 881.01 729.12 885.00 732.71 886.84 738.96
  C 888.61 745.00 898.39 749.02 903.96 746.18
  C 917.07 739.51 912.55 721.61 904.38 713.12
  Z
  M 500.94 794.81
  C 505.26 798.21 513.58 800.11 517.85 795.35
  C 521.78 790.98 525.30 786.32 531.14 783.94
  Q 532.61 783.34 539.91 781.15
  Q 556.50 776.17 570.50 774.00
  Q 686.15 756.14 804.39 769.30
  C 830.49 772.21 854.20 776.78 879.25 786.24
  C 881.65 787.15 883.07 787.44 884.36 789.85
  C 888.72 798.00 893.24 803.46 903.55 800.25
  Q 910.41 798.11 912.21 791.20
  C 914.81 781.20 907.95 770.89 899.67 765.83
  Q 884.92 756.82 864.70 751.96
  Q 818.46 740.83 770.99 737.59
  C 705.80 733.13 640.68 734.83 575.95 743.99
  Q 546.60 748.15 518.72 758.16
  C 508.66 761.77 500.20 768.14 496.64 778.49
  C 494.38 785.05 495.52 790.56 500.94 794.81
  Z
  M 885.24 847.04
  C 893.67 869.70 924.60 851.80 908.15 829.93
  C 901.22 820.73 878.92 813.81 868.31 811.17
  Q 836.22 803.18 801.55 800.01
  Q 690.17 789.79 579.19 802.54
  C 557.41 805.05 535.02 808.00 514.99 813.71
  C 506.90 816.02 497.02 824.12 496.82 833.11
  C 496.63 841.41 505.06 849.62 513.83 846.80
  C 519.04 845.13 521.48 840.90 527.28 839.47
  Q 545.63 834.96 557.00 833.45
  Q 659.87 819.75 763.51 825.62
  C 803.54 827.89 842.84 833.12 881.24 845.02
  Q 882.96 845.56 884.58 846.32
  A 1.31 1.28 3.3 0 1 885.24 847.04
  Z
  M 496.99 879.36
  C 497.32 887.47 501.71 895.49 511.19 893.90
  Q 536.63 889.64 564.76 888.10
  C 623.59 884.88 682.54 884.38 741.44 885.62
  Q 812.42 887.11 881.89 902.03
  Q 882.75 902.21 882.95 903.06
  C 887.20 921.01 911.61 918.80 910.98 899.99
  C 910.60 888.94 906.14 882.67 896.16 877.84
  Q 884.67 872.27 871.93 870.07
  C 772.66 852.94 675.44 854.97 571.06 859.10
  Q 540.98 860.29 511.34 865.74
  C 503.80 867.12 496.64 870.82 496.99 879.36
  Z
  M 499.13 932.93
  C 502.55 945.93 530.25 947.50 540.66 947.56
  Q 618.99 948.01 697.31 948.42
  C 763.31 948.77 810.96 948.42 869.21 957.39
  C 872.91 957.96 879.64 958.72 882.18 960.31
  C 892.36 966.67 904.22 972.01 910.94 957.44
  C 913.89 951.06 909.59 943.27 904.77 939.29
  Q 901.39 936.49 893.51 933.98
  Q 877.24 928.80 861.25 926.99
  Q 810.51 921.22 756.31 920.73
  Q 656.19 919.83 556.06 919.66
  Q 533.68 919.63 513.80 915.24
  C 504.08 913.10 496.91 924.50 499.13 932.93
  Z
  M 501.11 993.66
  C 515.53 1003.91 532.75 1005.94 550.75 1006.10
  Q 645.35 1006.92 739.94 1007.29
  C 782.09 1007.46 824.15 1009.74 866.07 1014.15
  Q 877.63 1015.37 885.42 1019.11
  C 892.53 1022.52 899.67 1026.81 906.17 1021.69
  Q 912.98 1016.32 911.48 1006.81
  C 909.56 994.66 892.63 990.24 881.98 988.72
  C 835.93 982.17 789.29 978.57 742.76 978.54
  Q 654.38 978.48 566.01 978.49
  C 548.97 978.49 534.96 977.03 519.48 972.68
  Q 512.58 970.75 509.76 971.10
  C 500.31 972.29 491.85 987.07 501.11 993.66
  Z
  M 497.01 1034.81
  C 485.32 1059.30 552.34 1063.74 563.25 1063.94
  C 607.55 1064.72 651.97 1065.25 696.26 1065.25
  C 711.45 1065.25 717.88 1042.35 700.98 1037.99
  Q 695.90 1036.67 693.50 1036.69
  Q 632.75 1037.04 572.00 1036.15
  C 553.67 1035.89 537.48 1033.61 520.51 1028.30
  Q 512.72 1025.86 509.60 1025.98
  Q 501.07 1026.30 497.01 1034.81
  Z
  M 1187.09 1244.21
  C 1185.77 1246.20 1184.33 1246.22 1183.04 1244.19
  Q 1173.71 1229.56 1158.57 1206.72
  C 1154.87 1201.15 1150.80 1197.17 1144.44 1202.01
  Q 1143.70 1202.56 1144.22 1203.32
  Q 1161.08 1228.33 1177.13 1252.31
  C 1179.21 1255.42 1180.21 1257.75 1180.24 1261.25
  Q 1180.36 1276.50 1179.94 1291.75
  Q 1179.88 1294.02 1180.44 1295.69
  Q 1180.61 1296.21 1181.13 1296.37
  C 1185.41 1297.70 1190.13 1297.98 1190.07 1291.93
  Q 1189.91 1276.44 1190.04 1260.94
  C 1190.05 1259.45 1190.35 1257.68 1191.08 1256.57
  Q 1208.47 1230.08 1225.88 1203.25
  A 1.16 1.16 0.0 0 0 1225.35 1201.54
  C 1217.15 1198.15 1214.41 1203.58 1209.88 1210.27
  Q 1198.41 1227.18 1187.09 1244.21
  Z
  M 396.4254 1297.6089
  A 48.92 48.27 97.7 0 0 450.8148 1255.5975
  A 48.92 48.27 97.7 0 0 409.5346 1200.6511
  A 48.92 48.27 97.7 0 0 355.1452 1242.6625
  A 48.92 48.27 97.7 0 0 396.4254 1297.6089
  Z
  M 831.44 1288.55
  Q 849.05 1303.73 871.32 1295.26
  C 891.37 1287.63 892.04 1268.85 892.41 1250.50
  Q 893.07 1218.77 892.72 1203.75
  C 892.62 1199.47 882.00 1199.84 882.18 1206.24
  Q 882.78 1227.05 881.69 1259.74
  C 880.92 1282.91 866.27 1293.50 844.35 1285.60
  Q 834.24 1281.96 831.75 1271.50
  Q 829.99 1264.14 829.73 1249.57
  Q 829.35 1228.21 830.32 1206.90
  C 830.63 1200.12 826.53 1198.19 820.98 1201.95
  Q 820.53 1202.25 820.48 1202.79
  Q 819.92 1207.78 819.81 1215.00
  Q 819.41 1240.65 820.96 1263.31
  C 821.67 1273.64 823.27 1281.51 831.44 1288.55
  Z
  M 562.79 1296.77
  C 581.84 1296.43 601.03 1297.14 620.16 1296.94
  A 2.25 2.25 0.0 0 0 622.33 1295.18
  Q 623.03 1291.95 622.29 1288.76
  A 1.64 1.63 83.3 0 0 620.70 1287.50
  L 573.50 1287.50
  Q 572.40 1287.50 572.37 1286.40
  Q 572.03 1271.09 571.98 1256.50
  Q 571.98 1254.80 572.33 1253.81
  Q 572.55 1253.18 573.22 1253.17
  L 616.26 1252.68
  A 1.00 1.00 0.0 0 0 617.25 1251.68
  L 617.25 1245.73
  A 2.04 2.03 0.3 0 0 615.23 1243.70
  L 573.53 1243.32
  A 1.79 1.79 0.0 0 1 571.75 1241.53
  L 571.75 1211.77
  A 1.49 1.49 0.0 0 1 573.23 1210.28
  L 619.47 1210.00
  A 2.06 2.04 13.0 0 0 621.29 1208.87
  C 622.51 1206.42 622.96 1200.81 618.57 1200.80
  Q 590.91 1200.69 563.74 1200.77
  A 2.25 2.25 0.0 0 0 561.50 1203.02
  L 561.50 1295.50
  A 1.27 1.26 89.3 0 0 562.79 1296.77
  Z
  M 728.52 1210.53
  C 729.12 1210.65 730.01 1211.00 730.58 1210.96
  Q 744.17 1210.14 758.61 1210.82
  Q 759.41 1210.85 759.43 1211.65
  C 760.12 1238.70 760.51 1265.83 759.85 1293.01
  C 759.72 1298.26 765.19 1297.40 768.31 1296.23
  A 2.10 2.08 80.1 0 0 769.67 1294.28
  L 769.97 1212.29
  A 1.06 1.06 0.0 0 1 771.00 1211.23
  Q 785.53 1210.80 800.07 1210.72
  Q 800.64 1210.72 800.97 1210.25
  C 802.70 1207.83 802.13 1203.40 800.95 1201.17
  Q 800.66 1200.63 800.05 1200.64
  Q 769.17 1201.07 738.29 1201.49
  C 735.58 1201.53 732.28 1201.01 729.24 1201.00
  A 1.92 1.92 0.0 0 0 727.31 1202.85
  L 727.10 1208.72
  A 1.79 1.79 0.0 0 0 728.52 1210.53
  Z
  M 1039.75 1201.93
  A 1.14 1.14 0.0 0 0 1038.61 1200.79
  L 1030.63 1200.79
  A 1.14 1.14 0.0 0 0 1029.49 1201.93
  L 1029.49 1295.87
  A 1.14 1.14 0.0 0 0 1030.63 1297.01
  L 1038.61 1297.01
  A 1.14 1.14 0.0 0 0 1039.75 1295.87
  L 1039.75 1201.93
  Z
  M 1101.63 1212.11
  Q 1101.63 1210.86 1102.89 1210.84
  L 1130.73 1210.42
  A 2.50 2.49 -81.5 0 0 1133.06 1208.69
  Q 1134.15 1205.31 1132.80 1202.06
  A 2.18 2.16 -11.5 0 0 1130.76 1200.72
  L 1060.93 1201.44
  A 0.92 0.90 11.0 0 0 1060.11 1201.98
  Q 1058.65 1205.37 1059.03 1209.06
  A 1.90 1.90 0.0 0 0 1060.93 1210.77
  L 1090.40 1210.70
  A 0.70 0.70 0.0 0 1 1091.11 1211.40
  L 1091.31 1294.77
  Q 1091.32 1297.17 1093.71 1297.07
  L 1099.96 1296.79
  A 1.25 1.24 89.0 0 0 1101.15 1295.55
  L 1101.63 1212.11
  Z
  M 931.86 1216.97
  Q 932.37 1216.37 932.82 1217.02
  Q 958.18 1253.93 983.41 1290.24
  C 987.44 1296.03 990.91 1299.66 998.00 1296.84
  C 999.75 1296.14 999.90 1295.25 999.83 1293.50
  Q 998.30 1251.56 1000.22 1205.25
  C 1000.47 1199.42 993.15 1200.89 990.18 1202.71
  Q 989.75 1202.97 989.75 1203.48
  L 989.75 1278.34
  Q 989.75 1279.39 988.75 1279.72
  Q 987.80 1280.03 986.81 1278.61
  Q 960.90 1241.10 934.75 1203.75
  C 933.76 1202.33 933.40 1201.49 931.46 1201.49
  Q 926.82 1201.50 922.58 1201.50
  Q 921.66 1201.50 921.55 1202.41
  Q 920.01 1214.67 920.53 1226.94
  Q 921.90 1259.82 920.76 1292.72
  C 920.69 1294.96 920.29 1296.12 922.93 1296.79
  Q 926.87 1297.79 930.09 1296.53
  Q 930.61 1296.33 930.63 1295.78
  Q 931.16 1284.24 931.24 1272.69
  Q 931.44 1245.50 931.58 1218.32
  Q 931.59 1217.28 931.86 1216.97
  Z
  M 193.09 1260.82
  A 1.01 1.01 0.0 0 1 194.08 1259.82
  C 204.15 1259.61 214.45 1259.88 224.25 1257.95
  C 258.18 1251.30 254.93 1202.49 219.22 1201.55
  Q 201.61 1201.08 184.15 1201.29
  A 1.22 1.22 0.0 0 0 182.95 1202.51
  L 182.54 1294.81
  A 2.24 2.24 0.0 0 0 184.88 1297.06
  L 191.40 1296.79
  A 1.38 1.37 -1.1 0 0 192.72 1295.43
  L 193.09 1260.82
  Z
  M 270.21 1296.27
  Q 273.97 1298.36 278.17 1297.03
  Q 278.68 1296.86 278.92 1296.39
  C 281.00 1292.32 279.45 1288.55 279.40 1285.03
  Q 279.24 1272.28 280.18 1259.91
  A 1.50 1.49 -88.1 0 1 281.66 1258.52
  Q 289.46 1258.46 297.12 1258.51
  C 299.23 1258.52 299.81 1258.93 300.98 1260.52
  Q 314.07 1278.35 326.80 1295.87
  A 2.78 2.77 71.7 0 0 329.06 1297.01
  L 338.36 1296.98
  A 1.08 1.07 71.8 0 0 339.22 1295.27
  L 311.74 1257.48
  A 1.20 1.19 -23.8 0 1 312.47 1255.60
  C 321.55 1253.76 331.75 1248.28 334.68 1238.90
  C 339.37 1223.91 332.12 1207.74 316.77 1202.96
  Q 312.25 1201.56 301.51 1201.52
  Q 285.85 1201.46 270.49 1201.52
  A 0.99 0.99 0.0 0 0 269.50 1202.51
  L 269.50 1295.06
  Q 269.50 1295.87 270.21 1296.27
  Z
  M 475.52 1296.26
  C 479.15 1297.45 485.65 1298.59 485.04 1292.24
  Q 483.94 1280.64 484.28 1263.51
  C 484.35 1260.43 487.31 1259.21 490.19 1259.34
  Q 501.60 1259.86 506.44 1259.42
  C 523.99 1257.82 540.42 1249.79 540.03 1230.08
  C 539.69 1213.39 528.35 1202.23 511.47 1201.73
  Q 493.47 1201.20 475.35 1201.61
  Q 474.64 1201.63 474.64 1202.33
  L 474.64 1295.05
  Q 474.64 1295.98 475.52 1296.26
  Z
  M 647.60 1296.51
  Q 651.98 1298.15 656.28 1296.26
  Q 656.87 1296.00 656.87 1295.50
  L 657.12 1259.80
  A 1.59 1.59 0.0 0 1 658.74 1258.22
  C 661.76 1258.29 675.75 1257.78 677.32 1259.93
  Q 690.18 1277.45 702.85 1295.11
  C 704.95 1298.04 711.73 1297.00 714.93 1296.99
  A 1.08 1.08 0.0 0 0 715.80 1295.27
  L 688.66 1258.28
  A 1.36 1.36 0.0 0 1 689.36 1256.17
  C 696.22 1254.10 703.23 1250.63 707.62 1244.91
  C 718.29 1231.02 713.12 1210.93 696.74 1204.29
  Q 692.36 1202.51 682.98 1201.98
  Q 665.41 1200.99 648.03 1201.67
  A 1.34 1.33 -1.4 0 0 646.75 1203.00
  L 646.75 1295.28
  A 1.32 1.29 -80.2 0 0 647.60 1296.51
  Z"
/>
<path fill="#097c7d" d="
  M 638.98 263.68
  C 632.67 253.68 640.06 238.58 647.64 231.61
  Q 664.12 216.47 686.26 212.92
  C 688.52 212.56 690.24 210.89 690.24 208.69
  Q 690.26 151.59 690.26 94.50
  C 690.27 83.14 693.71 69.48 709.20 74.96
  C 716.51 77.54 718.57 82.62 718.53 90.12
  Q 718.21 149.81 718.24 209.50
  C 718.24 211.62 719.12 212.33 721.20 212.59
  C 742.87 215.29 774.94 232.89 771.71 259.00
  C 770.37 269.87 755.29 273.82 747.94 266.18
  C 744.90 263.02 744.34 257.63 742.72 254.30
  C 741.27 251.32 738.30 248.59 735.08 247.03
  Q 702.21 231.13 670.22 249.69
  C 661.63 254.68 666.36 265.60 658.02 268.88
  C 650.87 271.70 643.18 270.35 638.98 263.68
  Z"
/>
<path fill="#097c7d" d="
  M 659.60 315.00
  C 654.17 326.70 636.94 323.93 634.29 312.15
  Q 633.61 309.14 634.76 304.39
  Q 639.37 285.32 657.94 277.18
  Q 700.91 258.36 744.70 275.49
  C 758.64 280.94 770.29 288.89 773.71 304.25
  C 775.33 311.52 773.63 317.99 766.58 321.05
  Q 756.90 325.27 750.00 318.55
  C 746.28 314.93 747.23 308.10 742.61 305.78
  C 719.92 294.40 695.27 292.88 672.04 302.83
  C 665.89 305.46 662.29 309.20 659.60 315.00
  Z"
/>
<path fill="#097c7d" d="
  M 642.10 372.52
  C 632.69 369.56 629.21 360.80 633.75 351.69
  Q 640.26 338.60 654.33 333.91
  Q 698.10 319.30 742.18 330.38
  C 757.47 334.22 768.47 338.04 774.75 351.94
  C 783.77 371.89 756.64 383.24 748.78 363.08
  C 748.47 362.28 747.72 361.49 747.00 361.24
  Q 708.52 347.66 669.07 358.53
  Q 667.20 359.04 664.81 360.22
  C 656.53 364.28 654.18 376.33 642.10 372.52
  Z"
/>
<path fill="#097c7d" d="
  M 598.44 439.81
  C 592.57 435.90 592.28 428.02 594.37 421.91
  C 601.45 401.21 624.92 392.45 644.93 387.94
  Q 700.61 375.40 756.73 385.93
  C 777.13 389.75 808.96 400.26 815.29 423.46
  C 819.59 439.18 796.12 451.59 789.19 434.79
  C 787.35 430.30 787.11 426.90 782.25 424.50
  Q 763.15 415.09 743.00 412.25
  C 706.92 407.17 670.91 409.02 636.16 420.13
  C 631.43 421.64 624.56 424.90 622.03 428.71
  C 619.61 432.35 619.52 436.86 615.84 439.75
  Q 607.81 446.06 598.44 439.81
  Z"
/>
<path fill="#097c7d" d="
  M 613.38 493.56
  C 601.08 498.92 590.72 488.98 593.93 476.43
  Q 596.91 464.80 608.46 457.69
  Q 624.87 447.58 640.29 444.24
  Q 710.82 428.93 780.31 448.05
  C 792.35 451.36 812.09 461.72 814.90 475.24
  C 817.36 487.10 809.93 497.89 796.66 494.09
  C 790.75 492.40 789.09 488.52 787.37 482.92
  A 1.33 1.33 0.0 0 0 786.79 482.18
  Q 773.62 474.40 761.75 472.04
  Q 713.66 462.46 664.99 468.75
  Q 643.83 471.48 624.38 480.25
  Q 623.91 480.47 623.65 480.91
  C 620.91 485.48 618.70 491.25 613.38 493.56
  Z"
/>
<path fill="#097c7d" d="
  M 598.44 542.06
  C 590.16 535.45 591.70 526.58 597.66 518.89
  C 607.02 506.82 620.80 504.19 634.96 501.28
  Q 678.89 492.26 723.81 494.67
  C 748.86 496.02 774.30 498.16 797.47 508.55
  C 805.60 512.19 812.32 516.30 814.47 526.02
  C 817.07 537.71 807.23 551.78 794.71 543.00
  C 790.89 540.32 786.53 535.00 781.49 532.64
  Q 777.87 530.95 773.92 530.14
  C 726.18 520.27 674.06 519.08 626.77 532.31
  C 619.28 534.40 620.34 539.56 614.91 543.15
  Q 606.65 548.62 598.44 542.06
  Z"
/>
<path fill="#097c7d" d="
  M 531.53 612.62
  C 521.45 618.77 522.54 637.39 506.67 633.40
  C 495.02 630.47 494.09 618.58 497.67 609.24
  C 503.13 595.00 523.48 582.39 537.25 577.47
  C 553.09 571.82 569.13 566.88 585.80 563.78
  C 670.82 548.00 762.91 547.78 846.99 569.01
  Q 867.56 574.20 887.00 585.49
  C 902.39 594.43 912.14 604.17 913.25 622.25
  C 913.74 630.19 904.12 634.47 897.74 634.06
  C 890.38 633.59 887.41 628.59 885.30 622.28
  C 881.97 612.34 865.06 605.23 855.81 602.07
  C 830.90 593.59 806.13 589.11 780.07 585.96
  Q 679.11 573.78 576.74 595.22
  Q 551.30 600.55 531.53 612.62
  Z"
/>
<path fill="#097c7d" d="
  M 521.42 685.41
  C 514.88 695.88 498.21 694.16 495.69 681.37
  C 493.94 672.50 500.96 660.28 506.88 654.26
  Q 511.83 649.22 521.78 644.35
  Q 544.97 632.99 570.93 628.18
  Q 674.08 609.10 777.82 619.43
  C 810.87 622.72 846.02 628.36 877.25 639.98
  C 890.44 644.89 920.55 664.46 911.60 682.86
  C 906.85 692.64 890.99 693.95 886.27 682.75
  C 885.43 680.76 885.26 677.09 882.75 675.50
  Q 865.98 664.86 849.19 660.56
  C 787.71 644.81 721.24 642.58 657.26 646.12
  Q 623.14 648.01 582.69 654.44
  Q 553.38 659.11 529.29 673.01
  C 524.95 675.52 523.84 681.53 521.42 685.41
  Z"
/>
<path fill="#097c7d" d="
  M 904.38 713.12
  C 912.55 721.61 917.07 739.51 903.96 746.18
  C 898.39 749.02 888.61 745.00 886.84 738.96
  C 885.00 732.71 881.01 729.12 874.75 726.48
  C 856.30 718.68 840.48 715.34 820.67 712.39
  Q 701.39 694.68 582.24 714.92
  Q 563.00 718.18 544.64 724.60
  C 533.16 728.62 528.11 729.74 522.23 738.94
  C 514.01 751.81 492.49 743.09 496.73 727.52
  C 501.79 708.99 520.02 703.24 537.57 697.34
  C 560.06 689.77 582.39 685.65 605.85 682.62
  Q 688.01 672.01 772.56 677.95
  Q 811.05 680.65 846.74 688.30
  Q 861.56 691.48 866.23 692.81
  C 878.69 696.38 895.17 703.54 904.38 713.12
  Z"
/>
<path fill="#097c7d" d="
  M 500.94 794.81
  C 495.52 790.56 494.38 785.05 496.64 778.49
  C 500.20 768.14 508.66 761.77 518.72 758.16
  Q 546.60 748.15 575.95 743.99
  C 640.68 734.83 705.80 733.13 770.99 737.59
  Q 818.46 740.83 864.70 751.96
  Q 884.92 756.82 899.67 765.83
  C 907.95 770.89 914.81 781.20 912.21 791.20
  Q 910.41 798.11 903.55 800.25
  C 893.24 803.46 888.72 798.00 884.36 789.85
  C 883.07 787.44 881.65 787.15 879.25 786.24
  C 854.20 776.78 830.49 772.21 804.39 769.30
  Q 686.15 756.14 570.50 774.00
  Q 556.50 776.17 539.91 781.15
  Q 532.61 783.34 531.14 783.94
  C 525.30 786.32 521.78 790.98 517.85 795.35
  C 513.58 800.11 505.26 798.21 500.94 794.81
  Z"
/>
<path fill="#097c7d" d="
  M 884.58 846.32
  Q 882.96 845.56 881.24 845.02
  C 842.84 833.12 803.54 827.89 763.51 825.62
  Q 659.87 819.75 557.00 833.45
  Q 545.63 834.96 527.28 839.47
  C 521.48 840.90 519.04 845.13 513.83 846.80
  C 505.06 849.62 496.63 841.41 496.82 833.11
  C 497.02 824.12 506.90 816.02 514.99 813.71
  C 535.02 808.00 557.41 805.05 579.19 802.54
  Q 690.17 789.79 801.55 800.01
  Q 836.22 803.18 868.31 811.17
  C 878.92 813.81 901.22 820.73 908.15 829.93
  C 924.60 851.80 893.67 869.70 885.24 847.04
  A 1.31 1.28 3.3 0 0 884.58 846.32
  Z"
/>
<path fill="#097c7d" d="
  M 511.19 893.90
  C 501.71 895.49 497.32 887.47 496.99 879.36
  C 496.64 870.82 503.80 867.12 511.34 865.74
  Q 540.98 860.29 571.06 859.10
  C 675.44 854.97 772.66 852.94 871.93 870.07
  Q 884.67 872.27 896.16 877.84
  C 906.14 882.67 910.60 888.94 910.98 899.99
  C 911.61 918.80 887.20 921.01 882.95 903.06
  Q 882.75 902.21 881.89 902.03
  Q 812.42 887.11 741.44 885.62
  C 682.54 884.38 623.59 884.88 564.76 888.10
  Q 536.63 889.64 511.19 893.90
  Z"
/>
<path fill="#097c7d" d="
  M 540.66 947.56
  C 530.25 947.50 502.55 945.93 499.13 932.93
  C 496.91 924.50 504.08 913.10 513.80 915.24
  Q 533.68 919.63 556.06 919.66
  Q 656.19 919.83 756.31 920.73
  Q 810.51 921.22 861.25 926.99
  Q 877.24 928.80 893.51 933.98
  Q 901.39 936.49 904.77 939.29
  C 909.59 943.27 913.89 951.06 910.94 957.44
  C 904.22 972.01 892.36 966.67 882.18 960.31
  C 879.64 958.72 872.91 957.96 869.21 957.39
  C 810.96 948.42 763.31 948.77 697.31 948.42
  Q 618.99 948.01 540.66 947.56
  Z"
/>
<path fill="#097c7d" d="
  M 501.11 993.66
  C 491.85 987.07 500.31 972.29 509.76 971.10
  Q 512.58 970.75 519.48 972.68
  C 534.96 977.03 548.97 978.49 566.01 978.49
  Q 654.38 978.48 742.76 978.54
  C 789.29 978.57 835.93 982.17 881.98 988.72
  C 892.63 990.24 909.56 994.66 911.48 1006.81
  Q 912.98 1016.32 906.17 1021.69
  C 899.67 1026.81 892.53 1022.52 885.42 1019.11
  Q 877.63 1015.37 866.07 1014.15
  C 824.15 1009.74 782.09 1007.46 739.94 1007.29
  Q 645.35 1006.92 550.75 1006.10
  C 532.75 1005.94 515.53 1003.91 501.11 993.66
  Z"
/>
<path fill="#097c7d" d="
  M 563.25 1063.94
  C 552.34 1063.74 485.32 1059.30 497.01 1034.81
  Q 501.07 1026.30 509.60 1025.98
  Q 512.72 1025.86 520.51 1028.30
  C 537.48 1033.61 553.67 1035.89 572.00 1036.15
  Q 632.75 1037.04 693.50 1036.69
  Q 695.90 1036.67 700.98 1037.99
  C 717.88 1042.35 711.45 1065.25 696.26 1065.25
  C 651.97 1065.25 607.55 1064.72 563.25 1063.94
  Z"
/>
<path fill="#097c7d" d="
  M 1187.09 1244.21
  Q 1198.41 1227.18 1209.88 1210.27
  C 1214.41 1203.58 1217.15 1198.15 1225.35 1201.54
  A 1.16 1.16 0.0 0 1 1225.88 1203.25
  Q 1208.47 1230.08 1191.08 1256.57
  C 1190.35 1257.68 1190.05 1259.45 1190.04 1260.94
  Q 1189.91 1276.44 1190.07 1291.93
  C 1190.13 1297.98 1185.41 1297.70 1181.13 1296.37
  Q 1180.61 1296.21 1180.44 1295.69
  Q 1179.88 1294.02 1179.94 1291.75
  Q 1180.36 1276.50 1180.24 1261.25
  C 1180.21 1257.75 1179.21 1255.42 1177.13 1252.31
  Q 1161.08 1228.33 1144.22 1203.32
  Q 1143.70 1202.56 1144.44 1202.01
  C 1150.80 1197.17 1154.87 1201.15 1158.57 1206.72
  Q 1173.71 1229.56 1183.04 1244.19
  C 1184.33 1246.22 1185.77 1246.20 1187.09 1244.21
  Z"
/>
<path fill="#097c7d" d="
  M 396.4254 1297.6089
  A 48.92 48.27 97.7 0 1 355.1452 1242.6625
  A 48.92 48.27 97.7 0 1 409.5346 1200.6511
  A 48.92 48.27 97.7 0 1 450.8148 1255.5975
  A 48.92 48.27 97.7 0 1 396.4254 1297.6089
  Z
  M 405.7125 1288.4087
  A 39.44 37.73 86.1 0 0 440.6726 1246.4938
  A 39.44 37.73 86.1 0 0 400.3475 1209.7113
  A 39.44 37.73 86.1 0 0 365.3874 1251.6262
  A 39.44 37.73 86.1 0 0 405.7125 1288.4087
  Z"
/>
<path fill="#097c7d" d="
  M 831.44 1288.55
  C 823.27 1281.51 821.67 1273.64 820.96 1263.31
  Q 819.41 1240.65 819.81 1215.00
  Q 819.92 1207.78 820.48 1202.79
  Q 820.53 1202.25 820.98 1201.95
  C 826.53 1198.19 830.63 1200.12 830.32 1206.90
  Q 829.35 1228.21 829.73 1249.57
  Q 829.99 1264.14 831.75 1271.50
  Q 834.24 1281.96 844.35 1285.60
  C 866.27 1293.50 880.92 1282.91 881.69 1259.74
  Q 882.78 1227.05 882.18 1206.24
  C 882.00 1199.84 892.62 1199.47 892.72 1203.75
  Q 893.07 1218.77 892.41 1250.50
  C 892.04 1268.85 891.37 1287.63 871.32 1295.26
  Q 849.05 1303.73 831.44 1288.55
  Z"
/>
<path fill="#097c7d" d="
  M 620.16 1296.94
  C 601.03 1297.14 581.84 1296.43 562.79 1296.77
  A 1.27 1.26 89.3 0 1 561.50 1295.50
  L 561.50 1203.02
  A 2.25 2.25 0.0 0 1 563.74 1200.77
  Q 590.91 1200.69 618.57 1200.80
  C 622.96 1200.81 622.51 1206.42 621.29 1208.87
  A 2.06 2.04 13.0 0 1 619.47 1210.00
  L 573.23 1210.28
  A 1.49 1.49 0.0 0 0 571.75 1211.77
  L 571.75 1241.53
  A 1.79 1.79 0.0 0 0 573.53 1243.32
  L 615.23 1243.70
  A 2.04 2.03 0.3 0 1 617.25 1245.73
  L 617.25 1251.68
  A 1.00 1.00 0.0 0 1 616.26 1252.68
  L 573.22 1253.17
  Q 572.55 1253.18 572.33 1253.81
  Q 571.98 1254.80 571.98 1256.50
  Q 572.03 1271.09 572.37 1286.40
  Q 572.40 1287.50 573.50 1287.50
  L 620.70 1287.50
  A 1.64 1.63 83.3 0 1 622.29 1288.76
  Q 623.03 1291.95 622.33 1295.18
  A 2.25 2.25 0.0 0 1 620.16 1296.94
  Z"
/>
<path fill="#097c7d" d="
  M 728.52 1210.53
  A 1.79 1.79 0.0 0 1 727.10 1208.72
  L 727.31 1202.85
  A 1.92 1.92 0.0 0 1 729.24 1201.00
  C 732.28 1201.01 735.58 1201.53 738.29 1201.49
  Q 769.17 1201.07 800.05 1200.64
  Q 800.66 1200.63 800.95 1201.17
  C 802.13 1203.40 802.70 1207.83 800.97 1210.25
  Q 800.64 1210.72 800.07 1210.72
  Q 785.53 1210.80 771.00 1211.23
  A 1.06 1.06 0.0 0 0 769.97 1212.29
  L 769.67 1294.28
  A 2.10 2.08 80.1 0 1 768.31 1296.23
  C 765.19 1297.40 759.72 1298.26 759.85 1293.01
  C 760.51 1265.83 760.12 1238.70 759.43 1211.65
  Q 759.41 1210.85 758.61 1210.82
  Q 744.17 1210.14 730.58 1210.96
  C 730.01 1211.00 729.12 1210.65 728.52 1210.53
  Z"
/>
<rect fill="#097c7d" x="1029.49" y="1200.79" width="10.26" height="96.22" rx="1.14"/>
<path fill="#097c7d" d="
  M 1101.63 1212.11
  L 1101.15 1295.55
  A 1.25 1.24 89.0 0 1 1099.96 1296.79
  L 1093.71 1297.07
  Q 1091.32 1297.17 1091.31 1294.77
  L 1091.11 1211.40
  A 0.70 0.70 0.0 0 0 1090.40 1210.70
  L 1060.93 1210.77
  A 1.90 1.90 0.0 0 1 1059.03 1209.06
  Q 1058.65 1205.37 1060.11 1201.98
  A 0.92 0.90 11.0 0 1 1060.93 1201.44
  L 1130.76 1200.72
  A 2.18 2.16 -11.5 0 1 1132.80 1202.06
  Q 1134.15 1205.31 1133.06 1208.69
  A 2.50 2.49 -81.5 0 1 1130.73 1210.42
  L 1102.89 1210.84
  Q 1101.63 1210.86 1101.63 1212.11
  Z"
/>
<path fill="#097c7d" d="
  M 931.86 1216.97
  Q 931.59 1217.28 931.58 1218.32
  Q 931.44 1245.50 931.24 1272.69
  Q 931.16 1284.24 930.63 1295.78
  Q 930.61 1296.33 930.09 1296.53
  Q 926.87 1297.79 922.93 1296.79
  C 920.29 1296.12 920.69 1294.96 920.76 1292.72
  Q 921.90 1259.82 920.53 1226.94
  Q 920.01 1214.67 921.55 1202.41
  Q 921.66 1201.50 922.58 1201.50
  Q 926.82 1201.50 931.46 1201.49
  C 933.40 1201.49 933.76 1202.33 934.75 1203.75
  Q 960.90 1241.10 986.81 1278.61
  Q 987.80 1280.03 988.75 1279.72
  Q 989.75 1279.39 989.75 1278.34
  L 989.75 1203.48
  Q 989.75 1202.97 990.18 1202.71
  C 993.15 1200.89 1000.47 1199.42 1000.22 1205.25
  Q 998.30 1251.56 999.83 1293.50
  C 999.90 1295.25 999.75 1296.14 998.00 1296.84
  C 990.91 1299.66 987.44 1296.03 983.41 1290.24
  Q 958.18 1253.93 932.82 1217.02
  Q 932.37 1216.37 931.86 1216.97
  Z"
/>
<path fill="#097c7d" d="
  M 193.09 1260.82
  L 192.72 1295.43
  A 1.38 1.37 -1.1 0 1 191.40 1296.79
  L 184.88 1297.06
  A 2.24 2.24 0.0 0 1 182.54 1294.81
  L 182.95 1202.51
  A 1.22 1.22 0.0 0 1 184.15 1201.29
  Q 201.61 1201.08 219.22 1201.55
  C 254.93 1202.49 258.18 1251.30 224.25 1257.95
  C 214.45 1259.88 204.15 1259.61 194.08 1259.82
  A 1.01 1.01 0.0 0 0 193.09 1260.82
  Z
  M 192.75 1213.31
  L 192.75 1247.37
  A 2.39 2.39 0.0 0 0 195.14 1249.76
  L 215.76 1249.76
  A 22.47 19.37 0.0 0 0 238.23 1230.39
  L 238.23 1230.29
  A 22.47 19.37 -0.0 0 0 215.76 1210.92
  L 195.14 1210.92
  A 2.39 2.39 0.0 0 0 192.75 1213.31
  Z"
/>
<path fill="#097c7d" d="
  M 270.21 1296.27
  Q 269.50 1295.87 269.50 1295.06
  L 269.50 1202.51
  A 0.99 0.99 0.0 0 1 270.49 1201.52
  Q 285.85 1201.46 301.51 1201.52
  Q 312.25 1201.56 316.77 1202.96
  C 332.12 1207.74 339.37 1223.91 334.68 1238.90
  C 331.75 1248.28 321.55 1253.76 312.47 1255.60
  A 1.20 1.19 -23.8 0 0 311.74 1257.48
  L 339.22 1295.27
  A 1.08 1.07 71.8 0 1 338.36 1296.98
  L 329.06 1297.01
  A 2.78 2.77 71.7 0 1 326.80 1295.87
  Q 314.07 1278.35 300.98 1260.52
  C 299.81 1258.93 299.23 1258.52 297.12 1258.51
  Q 289.46 1258.46 281.66 1258.52
  A 1.50 1.49 -88.1 0 0 280.18 1259.91
  Q 279.24 1272.28 279.40 1285.03
  C 279.45 1288.55 281.00 1292.32 278.92 1296.39
  Q 278.68 1296.86 278.17 1297.03
  Q 273.97 1298.36 270.21 1296.27
  Z
  M 279.82 1212.34
  L 279.82 1247.18
  A 1.68 1.68 0.0 0 0 281.50 1248.86
  L 303.63 1248.86
  A 22.83 17.74 -0.0 0 0 326.46 1231.12
  L 326.46 1228.40
  A 22.83 17.74 0.0 0 0 303.63 1210.66
  L 281.50 1210.66
  A 1.68 1.68 0.0 0 0 279.82 1212.34
  Z"
/>
<path fill="#097c7d" d="
  M 475.52 1296.26
  Q 474.64 1295.98 474.64 1295.05
  L 474.64 1202.33
  Q 474.64 1201.63 475.35 1201.61
  Q 493.47 1201.20 511.47 1201.73
  C 528.35 1202.23 539.69 1213.39 540.03 1230.08
  C 540.42 1249.79 523.99 1257.82 506.44 1259.42
  Q 501.60 1259.86 490.19 1259.34
  C 487.31 1259.21 484.35 1260.43 484.28 1263.51
  Q 483.94 1280.64 485.04 1292.24
  C 485.65 1298.59 479.15 1297.45 475.52 1296.26
  Z
  M 484.47 1213.75
  L 484.47 1246.95
  A 2.96 2.96 0.0 0 0 487.43 1249.91
  L 508.15 1249.91
  A 21.84 18.38 0.0 0 0 529.99 1231.53
  L 529.99 1229.17
  A 21.84 18.38 0.0 0 0 508.15 1210.79
  L 487.43 1210.79
  A 2.96 2.96 0.0 0 0 484.47 1213.75
  Z"
/>
<path fill="#097c7d" d="
  M 647.60 1296.51
  A 1.32 1.29 -80.2 0 1 646.75 1295.28
  L 646.75 1203.00
  A 1.34 1.33 -1.4 0 1 648.03 1201.67
  Q 665.41 1200.99 682.98 1201.98
  Q 692.36 1202.51 696.74 1204.29
  C 713.12 1210.93 718.29 1231.02 707.62 1244.91
  C 703.23 1250.63 696.22 1254.10 689.36 1256.17
  A 1.36 1.36 0.0 0 0 688.66 1258.28
  L 715.80 1295.27
  A 1.08 1.08 0.0 0 1 714.93 1296.99
  C 711.73 1297.00 704.95 1298.04 702.85 1295.11
  Q 690.18 1277.45 677.32 1259.93
  C 675.75 1257.78 661.76 1258.29 658.74 1258.22
  A 1.59 1.59 0.0 0 0 657.12 1259.80
  L 656.87 1295.50
  Q 656.87 1296.00 656.28 1296.26
  Q 651.98 1298.15 647.60 1296.51
  Z
  M 656.97 1212.21
  L 656.55 1246.83
  A 1.55 1.55 0.0 0 0 658.08 1248.39
  L 681.92 1248.69
  A 21.03 18.59 0.7 0 0 703.17 1230.35
  L 703.18 1229.81
  A 21.03 18.59 0.7 0 0 682.38 1210.97
  L 658.54 1210.68
  A 1.55 1.55 0.0 0 0 656.97 1212.21
  Z"
/>
<ellipse fill="#000000" fill-opacity="0.004" cx="0.00" cy="0.00" transform="translate(403.03,1249.06) rotate(86.1)" rx="39.44" ry="37.73"/>
<path fill="#000000" fill-opacity="0.004" d="
  M 279.82 1212.34
  A 1.68 1.68 0.0 0 1 281.50 1210.66
  L 303.63 1210.66
  A 22.83 17.74 0.0 0 1 326.46 1228.40
  L 326.46 1231.12
  A 22.83 17.74 -0.0 0 1 303.63 1248.86
  L 281.50 1248.86
  A 1.68 1.68 0.0 0 1 279.82 1247.18
  L 279.82 1212.34
  Z"
/>
<path fill="#000000" fill-opacity="0.004" d="
  M 484.47 1213.75
  A 2.96 2.96 0.0 0 1 487.43 1210.79
  L 508.15 1210.79
  A 21.84 18.38 -0.0 0 1 529.99 1229.17
  L 529.99 1231.53
  A 21.84 18.38 0.0 0 1 508.15 1249.91
  L 487.43 1249.91
  A 2.96 2.96 0.0 0 1 484.47 1246.95
  L 484.47 1213.75
  Z"
/>
<path fill="#000000" fill-opacity="0.004" d="
  M 656.97 1212.21
  A 1.55 1.55 0.0 0 1 658.54 1210.68
  L 682.38 1210.97
  A 21.03 18.59 0.7 0 1 703.18 1229.81
  L 703.17 1230.35
  A 21.03 18.59 0.7 0 1 681.92 1248.69
  L 658.08 1248.39
  A 1.55 1.55 0.0 0 1 656.55 1246.83
  L 656.97 1212.21
  Z"
/>
<path fill="#000000" fill-opacity="0.004" d="
  M 192.75 1213.31
  A 2.39 2.39 0.0 0 1 195.14 1210.92
  L 215.76 1210.92
  A 22.47 19.37 0.0 0 1 238.23 1230.29
  L 238.23 1230.39
  A 22.47 19.37 -0.0 0 1 215.76 1249.76
  L 195.14 1249.76
  A 2.39 2.39 0.0 0 1 192.75 1247.37
  L 192.75 1213.31
  Z"
/>
</svg>
